<svg width="40" height="40" viewBox="0 0 40 40" fill="none" xmlns="http://www.w3.org/2000/svg">
<path fill-rule="evenodd" clip-rule="evenodd" d="M20 39C30.4934 39 39 30.4934 39 20C39 9.50659 30.4934 1 20 1C9.50659 1 1 9.50659 1 20C1 30.4934 9.50659 39 20 39ZM20 40C31.0457 40 40 31.0457 40 20C40 8.9543 31.0457 0 20 0C8.9543 0 0 8.9543 0 20C0 31.0457 8.9543 40 20 40Z" fill="#1D325B"/>
<path d="M27.5 19.75C27.5 15.4688 24.0312 12 19.75 12C15.4688 12 12 15.4688 12 19.75C12 23.625 14.8125 26.8438 18.5312 27.4062V22H16.5625V19.75H18.5312V18.0625C18.5312 16.125 19.6875 15.0312 21.4375 15.0312C22.3125 15.0312 23.1875 15.1875 23.1875 15.1875V17.0938H22.2188C21.25 17.0938 20.9375 17.6875 20.9375 18.3125V19.75H23.0938L22.75 22H20.9375V27.4062C24.6562 26.8438 27.5 23.625 27.5 19.75Z" fill="#1D325B"/>
</svg>
