<svg width="33" height="41" viewBox="0 0 33 41" fill="none" xmlns="http://www.w3.org/2000/svg">
<path d="M16.3383 40.9999C12.3242 41.013 8.43815 39.5889 5.38383 36.9855C-0.149756 32.2626 -0.438031 27.1811 0.290243 23.7506C1.07054 20.0968 3.13831 17.5761 3.2261 17.4678C3.39133 17.2686 3.61353 17.1246 3.86293 17.0551C4.11233 16.9856 4.37701 16.994 4.62153 17.0791C4.86604 17.1642 5.0787 17.3219 5.23102 17.5311C5.38334 17.7404 5.46804 17.9912 5.47378 18.2499C5.49979 19.4415 6.05575 20.3503 7.17417 21.0306C7.69682 21.3435 8.26392 21.5754 8.85614 21.7184C10.5901 21.6101 11.7486 21.0934 12.2938 20.1716C13.3461 18.394 12.2016 15.1887 11.7172 14.1986C11.6877 14.1378 11.6631 14.0748 11.6435 14.0101C10.5186 10.3358 10.6985 7.1858 12.18 4.65212C14.3204 0.991887 18.3735 0.0668086 18.5448 0.0299788C18.7315 -0.0113245 18.9251 -0.0099319 19.1111 0.0340531C19.2972 0.0780381 19.4709 0.163478 19.6193 0.283991C19.7677 0.404503 19.8869 0.556974 19.9681 0.730011C20.0493 0.903048 20.0903 1.09218 20.088 1.28328C20.0534 4.36723 23.1854 9.67506 28.681 15.8462C31.8965 19.4566 33.4321 24.2163 32.8946 28.9056C32.0514 36.2716 26.4518 40.5601 17.1272 40.9826C16.8643 40.9949 16.6013 41.0006 16.3383 40.9999ZM3.83191 21.2851C3.34663 22.2618 2.98651 23.2958 2.76009 24.3626C1.94403 28.338 3.38107 31.9333 7.03328 35.0497C9.80576 37.4092 13.3745 38.6222 17.0113 38.4413C20.3709 38.2897 23.297 37.5563 25.4482 36.3225C28.357 34.6619 29.9674 32.1391 30.3727 28.6143C30.8268 24.6421 29.5198 20.5984 26.7845 17.5328C23.0358 13.3234 18.6564 7.60934 17.7287 3.00886C16.6797 3.50065 15.2621 4.40515 14.3691 5.95308C13.2854 7.82924 13.177 10.2611 14.0548 13.1804C14.4518 14.056 14.7629 14.968 14.9836 15.9036C15.5081 18.1557 15.3412 20.0275 14.4894 21.466C13.4642 23.1992 11.5633 24.1394 8.82471 24.264C8.73295 24.2679 8.64105 24.2621 8.55052 24.2467C7.60075 24.0561 6.69133 23.702 5.86284 23.2003C5.05061 22.7242 4.35638 22.0711 3.83191 21.2895V21.2851Z" fill="url(#paint0_radial)"/>
<defs>
<radialGradient id="paint0_radial" cx="0" cy="0" r="1" gradientUnits="userSpaceOnUse" gradientTransform="translate(4.68593 -4.6027) rotate(-38.854) scale(54.7917 58.6539)">
<stop offset="0.2679" stop-color="#D60B52"/>
<stop offset="0.8343" stop-color="#7A1469"/>
</radialGradient>
</defs>
</svg>
