<svg width="40" height="40" viewBox="0 0 40 40" fill="none" xmlns="http://www.w3.org/2000/svg">
<path fill-rule="evenodd" clip-rule="evenodd" d="M20 39C30.4934 39 39 30.4934 39 20C39 9.50659 30.4934 1 20 1C9.50659 1 1 9.50659 1 20C1 30.4934 9.50659 39 20 39ZM20 40C31.0457 40 40 31.0457 40 20C40 8.9543 31.0457 0 20 0C8.9543 0 0 8.9543 0 20C0 31.0457 8.9543 40 20 40Z" fill="#1D325B"/>
<path d="M20.0156 16.3906C18.0156 16.3906 16.4219 18.0156 16.4219 19.9844C16.4219 21.9844 18.0156 23.5781 20.0156 23.5781C21.9844 23.5781 23.6094 21.9844 23.6094 19.9844C23.6094 18.0156 21.9844 16.3906 20.0156 16.3906ZM20.0156 22.3281C18.7344 22.3281 17.6719 21.2969 17.6719 19.9844C17.6719 18.7031 18.7031 17.6719 20.0156 17.6719C21.2969 17.6719 22.3281 18.7031 22.3281 19.9844C22.3281 21.2969 21.2969 22.3281 20.0156 22.3281ZM24.5781 16.2656C24.5781 15.7969 24.2031 15.4219 23.7344 15.4219C23.2656 15.4219 22.8906 15.7969 22.8906 16.2656C22.8906 16.7344 23.2656 17.1094 23.7344 17.1094C24.2031 17.1094 24.5781 16.7344 24.5781 16.2656ZM26.9531 17.1094C26.8906 15.9844 26.6406 14.9844 25.8281 14.1719C25.0156 13.3594 24.0156 13.1094 22.8906 13.0469C21.7344 12.9844 18.2656 12.9844 17.1094 13.0469C15.9844 13.1094 15.0156 13.3594 14.1719 14.1719C13.3594 14.9844 13.1094 15.9844 13.0469 17.1094C12.9844 18.2656 12.9844 21.7344 13.0469 22.8906C13.1094 24.0156 13.3594 24.9844 14.1719 25.8281C15.0156 26.6406 15.9844 26.8906 17.1094 26.9531C18.2656 27.0156 21.7344 27.0156 22.8906 26.9531C24.0156 26.8906 25.0156 26.6406 25.8281 25.8281C26.6406 24.9844 26.8906 24.0156 26.9531 22.8906C27.0156 21.7344 27.0156 18.2656 26.9531 17.1094ZM25.4531 24.1094C25.2344 24.7344 24.7344 25.2031 24.1406 25.4531C23.2031 25.8281 21.0156 25.7344 20.0156 25.7344C18.9844 25.7344 16.7969 25.8281 15.8906 25.4531C15.2656 25.2031 14.7969 24.7344 14.5469 24.1094C14.1719 23.2031 14.2656 21.0156 14.2656 19.9844C14.2656 18.9844 14.1719 16.7969 14.5469 15.8594C14.7969 15.2656 15.2656 14.7969 15.8906 14.5469C16.7969 14.1719 18.9844 14.2656 20.0156 14.2656C21.0156 14.2656 23.2031 14.1719 24.1406 14.5469C24.7344 14.7656 25.2031 15.2656 25.4531 15.8594C25.8281 16.7969 25.7344 18.9844 25.7344 19.9844C25.7344 21.0156 25.8281 23.2031 25.4531 24.1094Z" fill="#1D325B"/>
</svg>
