<svg width="230" height="54" viewBox="0 0 230 54" fill="none" xmlns="http://www.w3.org/2000/svg">
<path d="M142.86 49.0001H135.47C133.47 49.0001 132.82 48.3201 132.82 47.4401C132.82 46.5601 133.45 45.8901 135.47 45.8901H142.86C144.86 45.8901 145.56 46.5601 145.56 47.4401C145.56 48.3201 144.84 49.0001 142.86 49.0001ZM143.12 42.3101H135.12C131.59 42.3101 128.77 44.5001 128.77 47.4401C128.77 50.3801 131.59 52.4401 135.12 52.4401H143.12C146.65 52.4401 149.43 50.3401 149.43 47.4401C149.43 44.5401 146.65 42.3101 143.12 42.3101Z" fill="#21325D"/>
<path d="M87.4902 29.4V39.06H83.3702V29.4C83.3702 24.56 82.1502 21.75 78.5802 21.75C75.0102 21.75 73.7802 24.56 73.7802 29.4V39.06H69.6602V29.4C69.6602 22.04 72.6602 18.09 78.5802 18.09C79.9164 18.0305 81.2459 18.3112 82.444 18.9059C83.6421 19.5006 84.6696 20.3897 85.4302 21.49C86.1982 20.395 87.2286 19.51 88.427 18.916C89.6254 18.3221 90.9536 18.0381 92.2902 18.09C98.1702 18.09 101.2 22.04 101.2 29.4V39.06H97.0802V29.4C97.0802 24.56 95.8602 21.75 92.2902 21.75C88.7202 21.75 87.4902 24.56 87.4902 29.4Z" fill="#21325D"/>
<path d="M195 30.4801C194.56 31.8402 193.699 33.0253 192.541 33.8646C191.384 34.7038 189.99 35.154 188.56 35.1501C187.664 35.1892 186.77 35.0402 185.936 34.7127C185.101 34.3852 184.344 33.8865 183.714 33.2487C183.083 32.6109 182.594 31.8482 182.276 31.0097C181.959 30.1711 181.82 29.2753 181.87 28.3801L181.9 22.0001H195V18.1201H181.9L181.83 7.81006H177.6V28.3801C177.6 35.1901 182.17 39.0601 188.52 39.0601C191.049 39.1521 193.527 38.3384 195.509 36.7654C197.491 35.1924 198.846 32.9635 199.33 30.4801H195Z" fill="#21325D"/>
<path d="M225.68 7.79004V39.06H229.79V7.79004H225.68Z" fill="#21325D"/>
<path d="M108.71 26.9C109.035 25.3825 109.87 24.0223 111.077 23.0464C112.283 22.0706 113.788 21.5383 115.34 21.5383C116.892 21.5383 118.397 22.0706 119.603 23.0464C120.81 24.0223 121.645 25.3825 121.97 26.9H108.71ZM126.08 29.11C126.108 26.3383 125.082 23.6595 123.208 21.6169C121.334 19.5742 118.754 18.3205 115.99 18.11C115.76 18.11 115.53 18.11 115.29 18.11C113.911 18.11 112.546 18.3816 111.272 18.9093C109.998 19.4369 108.84 20.2103 107.865 21.1854C106.89 22.1604 106.117 23.3179 105.589 24.5918C105.062 25.8657 104.79 27.2311 104.79 28.61C104.79 29.9889 105.062 31.3542 105.589 32.6282C106.117 33.9021 106.89 35.0596 107.865 36.0346C108.84 37.0096 109.998 37.783 111.272 38.3107C112.546 38.8384 113.911 39.11 115.29 39.11C117.235 39.1505 119.156 38.6657 120.849 37.7065C122.542 36.7474 123.945 35.3495 124.91 33.66H120.26V33.6C119.615 34.2713 118.837 34.8017 117.977 35.158C117.116 35.5142 116.191 35.6885 115.26 35.67C113.702 35.7107 112.181 35.1912 110.974 34.2058C109.766 33.2204 108.952 31.8345 108.68 30.3H126.05V29.11H126.08Z" fill="#21325D"/>
<path d="M206 26.9C206.325 25.3825 207.16 24.0223 208.367 23.0464C209.573 22.0706 211.078 21.5383 212.63 21.5383C214.182 21.5383 215.687 22.0706 216.893 23.0464C218.1 24.0223 218.935 25.3825 219.26 26.9H206ZM223.37 29.11C223.398 26.3383 222.372 23.6595 220.498 21.6169C218.624 19.5742 216.044 18.3205 213.28 18.11C213.05 18.11 212.81 18.11 212.58 18.11C211.201 18.11 209.836 18.3816 208.562 18.9093C207.288 19.4369 206.13 20.2103 205.155 21.1854C204.18 22.1604 203.407 23.3179 202.879 24.5918C202.352 25.8657 202.08 27.2311 202.08 28.61C202.08 29.9889 202.352 31.3542 202.879 32.6282C203.407 33.9021 204.18 35.0596 205.155 36.0346C206.13 37.0096 207.288 37.783 208.562 38.3107C209.836 38.8384 211.201 39.11 212.58 39.11C214.525 39.1494 216.445 38.6641 218.138 37.7051C219.831 36.7461 221.234 35.3488 222.2 33.66H217.55V33.6C216.905 34.2713 216.127 34.8017 215.267 35.158C214.406 35.5142 213.481 35.6885 212.55 35.67C210.99 35.7015 209.47 35.1717 208.268 34.1768C207.066 33.182 206.261 31.7885 206 30.25H223.37V29.11Z" fill="#21325D"/>
<path d="M139.23 35.66C135.28 35.66 132.42 32.66 132.3 28.59C132.265 27.6744 132.415 26.7612 132.741 25.9049C133.067 25.0487 133.563 24.267 134.198 23.6069C134.834 22.9467 135.596 22.4215 136.439 22.0627C137.282 21.704 138.189 21.5191 139.105 21.5191C140.021 21.5191 140.928 21.704 141.771 22.0627C142.614 22.4215 143.376 22.9467 144.012 23.6069C144.647 24.267 145.143 25.0487 145.469 25.9049C145.795 26.7612 145.945 27.6744 145.91 28.59C145.91 32.59 143.18 35.66 139.23 35.66V35.66ZM146.23 20.89C144.767 19.5336 142.944 18.6274 140.98 18.28C140.373 18.1709 139.757 18.1174 139.14 18.12C136.54 18.1065 134.028 19.061 132.093 20.7975C130.158 22.534 128.938 24.9285 128.671 27.5147C128.404 30.101 129.109 32.6941 130.648 34.7894C132.188 36.8846 134.452 38.3321 137 38.85C137.356 38.9292 137.717 38.9827 138.08 39.01H138.66H139.66C141.719 38.9036 143.701 38.1918 145.357 36.9636C147.013 35.7355 148.269 34.0457 148.969 32.1063C149.668 30.1669 149.78 28.0641 149.289 26.0616C148.798 24.0592 147.727 22.2462 146.21 20.85L146.23 20.89Z" fill="#21325D"/>
<path d="M169.42 28.84C169.31 32.75 166.61 35.66 162.74 35.66C161.818 35.6615 160.904 35.4787 160.054 35.1222C159.203 34.7656 158.432 34.2427 157.786 33.584C157.141 32.9253 156.633 32.1442 156.294 31.2866C155.954 30.4289 155.79 29.5121 155.81 28.59C155.762 27.6776 155.899 26.765 156.211 25.9066C156.524 25.0481 157.006 24.2613 157.629 23.593C158.252 22.9246 159.003 22.3885 159.837 22.0164C160.671 21.6443 161.572 21.4439 162.486 21.4271C163.399 21.4104 164.307 21.5775 165.154 21.9187C166.001 22.2599 166.772 22.7681 167.419 23.4131C168.066 24.0581 168.576 24.8267 168.92 25.6731C169.264 26.5195 169.434 27.4265 169.42 28.34C169.433 28.5064 169.433 28.6736 169.42 28.84V28.84ZM172.95 26.94C172.605 24.7937 171.602 22.8076 170.079 21.2562C168.556 19.7048 166.589 18.6648 164.45 18.28C163.843 18.1709 163.227 18.1173 162.61 18.12C160.013 18.1141 157.506 19.0738 155.576 20.8128C153.647 22.5517 152.433 24.9457 152.17 27.5297C151.907 30.1137 152.614 32.7032 154.153 34.7952C155.693 36.8873 157.955 38.3324 160.5 38.85C160.856 38.9284 161.217 38.9819 161.58 39.01H162.16H163.16C165.47 38.8992 167.677 38.0192 169.43 36.51V39.02H173.1V28.59C173.099 28.037 173.052 27.4851 172.96 26.94H172.95Z" fill="#21325D"/>
<path d="M54.6901 18.62L34.9201 31.77C33.3903 32.8247 31.5789 33.3952 29.7208 33.4077C27.8628 33.4202 26.0439 32.874 24.5001 31.84L23.3901 31.09L20.9201 29.45V42.77C20.9201 45.5442 19.818 48.2047 17.8564 50.1664C15.8948 52.128 13.2342 53.23 10.4601 53.23C7.68591 53.23 5.02537 52.128 3.06374 50.1664C1.10211 48.2047 7.65807e-05 45.5442 7.65807e-05 42.77V10.49C-0.00519306 9.11353 0.261547 7.74953 0.784974 6.4764C1.3084 5.20328 2.0782 4.04611 3.05016 3.07136C4.02212 2.09662 5.17708 1.3235 6.4487 0.796432C7.72032 0.269361 9.08355 -0.00128459 10.4601 4.27491e-05C12.3354 -0.0094055 14.178 0.491849 15.7901 1.45004L16.7201 2.08004L29.7201 10.78L43.4501 1.69004C45.6951 0.199526 48.4403 -0.338097 51.0818 0.195444C53.7232 0.728985 56.0446 2.28999 57.5351 4.53504C59.0256 6.7801 59.5632 9.52531 59.0297 12.1668C58.4961 14.8082 56.9351 17.1295 54.6901 18.62Z" fill="url(#paint0_linear)"/>
<path d="M59.2301 42.5201C59.2301 44.5889 58.6166 46.6112 57.4672 48.3313C56.3179 50.0515 54.6842 51.3921 52.7729 52.1838C50.8616 52.9755 48.7585 53.1827 46.7294 52.7791C44.7004 52.3755 42.8366 51.3793 41.3737 49.9164C39.9109 48.4535 38.9147 46.5897 38.511 44.5607C38.1074 42.5317 38.3146 40.4285 39.1063 38.5172C39.898 36.6059 41.2387 34.9722 42.9588 33.8229C44.6789 32.6735 46.7013 32.0601 48.7701 32.0601C51.5442 32.0601 54.2048 33.1621 56.1664 35.1237C58.128 37.0854 59.2301 39.7459 59.2301 42.5201V42.5201Z" fill="url(#paint1_linear)"/>
<defs>
<linearGradient id="paint0_linear" x1="0.638264" y1="28.9887" x2="59.2332" y2="29.0916" gradientUnits="userSpaceOnUse">
<stop stop-color="#2BA7D8"/>
<stop offset="1" stop-color="#1D325B"/>
</linearGradient>
<linearGradient id="paint1_linear" x1="38.5355" y1="43.454" x2="59.2309" y2="43.4866" gradientUnits="userSpaceOnUse">
<stop stop-color="#2BA7D8"/>
<stop offset="1" stop-color="#1D325B"/>
</linearGradient>
</defs>
</svg>
