<svg width="30" height="41" viewBox="0 0 30 41" fill="none" xmlns="http://www.w3.org/2000/svg">
<path d="M16.6318 0.317169L16.5923 0.359425C16.6104 0.338839 16.6297 0.319336 16.6489 0.300917L16.6318 0.317169ZM17.5768 0.000789672H17.5961C17.6035 -0.000263224 17.611 -0.000263224 17.6185 0.000789672H17.5768ZM29.8261 12.1608C29.8268 12.1629 29.8268 12.1652 29.8261 12.1673L29.8378 12.1835L29.8261 12.1608Z" fill="url(#paint0_linear)"/>
<path d="M29.8589 12.2106L29.8656 12.2241L29.8724 12.2342L29.8589 12.2106Z" fill="url(#paint1_linear)"/>
<path d="M29.9968 12.6802C29.9968 12.652 29.9968 12.6238 29.9883 12.5957V12.5783C29.9883 12.5697 29.9883 12.5599 29.9883 12.5513C29.9889 12.5484 29.9889 12.5454 29.9883 12.5426C29.9889 12.5347 29.9889 12.5267 29.9883 12.5187L29.9818 12.4917C29.9818 12.4917 29.9818 12.4917 29.9818 12.4852C29.9818 12.4787 29.9722 12.4505 29.9669 12.4332C29.9562 12.3985 29.9445 12.3638 29.9306 12.3302C29.9242 12.3151 29.9188 12.301 29.9124 12.2869C29.906 12.2728 29.8964 12.2533 29.8879 12.237L29.8815 12.2273L29.8751 12.2143L29.8622 12.1926V12.1861L29.8505 12.1699C29.8512 12.1678 29.8512 12.1655 29.8505 12.1634C29.8074 12.0944 29.7569 12.0304 29.6999 11.9727L18.1961 0.317579C18.0935 0.213338 17.9715 0.130836 17.8373 0.074877H17.8298L17.7871 0.0586254L17.7454 0.0445395L17.7145 0.0347885L17.6835 0.0261204H17.6771H17.6579L17.6184 0.0174523C17.6109 0.0163994 17.6034 0.0163994 17.5959 0.0174523H17.5767H17.5297H17.5212H17.4934C17.4699 0.0174523 17.4464 0.0174523 17.4229 0.0174523H1.10629C0.817989 0.0173454 0.541039 0.131435 0.334408 0.335426C0.127778 0.539418 0.00779181 0.817195 0 1.10961V39.8779C0 40.1756 0.116555 40.4611 0.324024 40.6716C0.531493 40.8822 0.812881 41.0004 1.10629 41.0004H28.8937C29.1871 41.0004 29.4685 40.8822 29.676 40.6716C29.8834 40.4611 30 40.1756 30 39.8779V12.7593C30 12.7333 29.9989 12.7029 29.9968 12.6802ZM18.5239 3.81833L26.2252 11.6325H18.5239V3.81833ZM16.6317 0.317579L16.6488 0.301327C16.6295 0.319746 16.6103 0.339249 16.5922 0.359835L16.6317 0.317579ZM27.7864 38.7554H2.21364V2.23427H16.3092V12.7593C16.3092 13.057 16.4257 13.3425 16.6332 13.553C16.8407 13.7635 17.1221 13.8818 17.4155 13.8818H27.7885L27.7864 38.7554Z" fill="url(#paint2_linear)"/>
<path d="M16.6489 0.300964C16.6297 0.319384 16.6104 0.338887 16.5923 0.359473L16.6318 0.317217L16.6489 0.300964Z" fill="url(#paint3_linear)"/>
<path d="M16.8418 0.150308C16.8889 0.120537 16.9386 0.0951515 16.9902 0.0744629C16.9389 0.0957935 16.8893 0.121152 16.8418 0.150308Z" fill="url(#paint4_linear)"/>
<path d="M14.9294 11.5638C14.9294 11.8612 14.8132 12.1465 14.6062 12.3571C14.3992 12.5677 14.1184 12.6865 13.8253 12.6874H4.1677C3.8801 12.6783 3.60728 12.556 3.407 12.3464C3.20672 12.1368 3.09473 11.8563 3.09473 11.5643C3.09473 11.2724 3.20672 10.9919 3.407 10.7823C3.60728 10.5726 3.8801 10.4503 4.1677 10.4413H13.8253C14.1183 10.4419 14.3992 10.5604 14.6062 10.7708C14.8132 10.9813 14.9294 11.2664 14.9294 11.5638Z" fill="url(#paint5_linear)"/>
<path d="M22.8764 17.4178C22.8764 17.7155 22.7599 18.0011 22.5524 18.2116C22.3449 18.4221 22.0635 18.5403 21.7701 18.5403H4.16781C3.8744 18.5403 3.59302 18.4221 3.38555 18.2116C3.17808 18.0011 3.06152 17.7155 3.06152 17.4178C3.06152 17.1201 3.17808 16.8346 3.38555 16.6241C3.59302 16.4136 3.8744 16.2953 4.16781 16.2953H21.7701C22.0635 16.2953 22.3449 16.4136 22.5524 16.6241C22.7599 16.8346 22.8764 17.1201 22.8764 17.4178Z" fill="url(#paint6_linear)"/>
<path d="M15.1066 25.5527C15.0446 25.0197 14.9496 24.5451 14.6901 24.0673C14.6544 24.0016 14.6141 23.9386 14.5694 23.8788C14.4707 23.7338 14.3615 23.5966 14.2427 23.4681C14.1206 23.3531 13.9908 23.247 13.854 23.1507C13.8001 23.1109 13.7437 23.0747 13.6853 23.0423C13.2746 22.8178 12.8178 22.6938 12.3515 22.6804C12.1136 22.6813 11.8762 22.7045 11.6425 22.7498C11.5082 22.7723 11.3765 22.8086 11.2495 22.8581C10.8056 23.0145 10.3961 23.2575 10.0439 23.5732C9.93322 23.6722 9.83138 23.781 9.73958 23.8983C9.57866 24.093 9.43299 24.3002 9.3039 24.518C8.95827 25.1561 8.73403 25.8544 8.64291 26.5766C8.53022 27.3086 8.48873 28.05 8.51904 28.7902C8.5702 29.7953 8.76702 30.7872 9.10315 31.7341C8.92304 31.8915 8.73972 32.0454 8.55321 32.1956L8.62902 32.1382L8.35993 32.3495C8.41332 32.3083 8.46671 32.266 8.51797 32.2238C7.7839 32.7975 6.98786 33.2846 6.14522 33.6757L6.28404 33.6182L5.96369 33.7548L6.11959 33.6854C5.90602 33.7721 5.69246 33.8523 5.47889 33.9227C5.14852 34.0231 4.8661 34.2433 4.68548 34.5414C4.55285 34.7724 4.4909 35.0382 4.50753 35.305C4.52416 35.5718 4.61861 35.8275 4.77886 36.0397C4.93912 36.2519 5.15794 36.411 5.40752 36.4966C5.65709 36.5823 5.92614 36.5908 6.18046 36.5209C7.52657 36.072 8.78703 35.3925 9.90723 34.5121C10.0781 34.3785 10.2475 34.2431 10.4155 34.1058C11.107 33.5481 11.7553 32.9373 12.3547 32.279C12.5469 32.0623 12.732 31.8424 12.91 31.6192C13.3773 31.0454 13.7909 30.4288 14.1455 29.7773C14.4908 29.135 14.7535 28.4504 14.9272 27.7403C15.0193 27.3339 15.0807 26.921 15.1108 26.5051C15.1401 26.1883 15.1387 25.8693 15.1066 25.5527ZM10.9569 29.8217C10.9904 29.7784 11.0224 29.735 11.053 29.6917L11.1598 29.5487L10.9569 29.8217ZM12.5267 25.4877C12.4872 25.4566 12.4458 25.428 12.4028 25.4021C12.4263 25.4346 12.4508 25.4661 12.4754 25.4986C12.4519 25.4693 12.4284 25.4412 12.4028 25.4141C12.4188 25.452 12.4337 25.4888 12.4498 25.5224C12.4572 25.5419 12.4658 25.5625 12.4743 25.582C12.4669 25.5647 12.4594 25.5473 12.4508 25.53C12.4658 25.6448 12.4818 25.7586 12.4957 25.8735C12.4882 25.8128 12.4786 25.7532 12.4669 25.6936C12.49 26.0011 12.4853 26.3101 12.453 26.6167C12.4626 26.5582 12.4722 26.4997 12.4797 26.4412C12.4647 26.5604 12.4487 26.6807 12.4327 26.7998C12.4402 26.7392 12.4476 26.6785 12.453 26.6178C12.3768 27.0758 12.2522 27.524 12.0814 27.9548C12.1102 27.8909 12.139 27.8259 12.1657 27.7609L12.0312 28.0859C12.0483 28.0437 12.0653 28.0014 12.0814 27.9581C11.8474 28.4746 11.566 28.9676 11.241 29.4306C11.241 29.4306 11.241 29.4306 11.241 29.4371C11.241 29.4436 11.241 29.462 11.241 29.475C11.241 29.4631 11.241 29.4501 11.2356 29.4381C11.226 29.3612 11.2153 29.2854 11.2057 29.2095C11.2111 29.2409 11.2153 29.2713 11.2207 29.3016C11.1433 28.601 11.1433 27.8938 11.2207 27.1931C11.2207 27.2192 11.2121 27.2452 11.2089 27.2701C11.2207 27.1758 11.2324 27.0826 11.2452 26.9895C11.2367 27.0577 11.2282 27.1249 11.2207 27.1931C11.2739 26.8143 11.3648 26.4418 11.4919 26.0815C11.4652 26.1389 11.4396 26.1963 11.415 26.2548L11.5218 26.0067C11.5122 26.0317 11.5037 26.0566 11.4951 26.0815C11.5609 25.9436 11.6358 25.8104 11.7194 25.6828C11.6863 25.7207 11.6532 25.7608 11.6222 25.8009L11.7952 25.5733C11.7792 25.5832 11.7639 25.594 11.7493 25.6058L11.8005 25.5658L11.934 25.4574L11.8731 25.4802L11.9425 25.4509L12.0152 25.3935L11.9543 25.4455L12.1081 25.3805C12.0867 25.3805 12.0643 25.3805 12.0429 25.3859L12.1177 25.3761L12.1582 25.3588L12.1262 25.3751L12.2629 25.3566C12.2287 25.3491 12.1946 25.3436 12.1561 25.3382L12.2736 25.3545H12.3109L12.2266 25.3144L12.3184 25.3534H12.3344C12.3088 25.3288 12.2821 25.305 12.2544 25.2819L12.3441 25.3523C12.3193 25.3103 12.2922 25.2698 12.2629 25.231L12.3537 25.3512H12.3654C12.3558 25.3241 12.3451 25.297 12.3344 25.27L12.3686 25.3512C12.3686 25.361 12.3761 25.3696 12.3793 25.3783L12.5085 25.3956C12.4658 25.3902 12.4241 25.387 12.3825 25.3848L12.5427 25.4531C12.4987 25.4348 12.4538 25.4189 12.4081 25.4054L12.5267 25.4877Z" fill="url(#paint7_linear)"/>
<path d="M6.28617 33.6138L5.96582 33.7504L6.12173 33.681L6.14415 33.6713L6.28617 33.6138Z" fill="url(#paint8_linear)"/>
<path d="M8.6314 32.1381L8.3623 32.3494C8.4157 32.3082 8.46909 32.266 8.52035 32.2237C8.5326 32.215 8.54437 32.2056 8.55558 32.1955L8.6314 32.1381Z" fill="url(#paint9_linear)"/>
<path d="M11.1642 29.5497L10.957 29.8216C10.9905 29.7783 11.0225 29.735 11.0531 29.6916L11.1642 29.5497Z" fill="url(#paint10_linear)"/>
<path d="M11.2369 29.436C11.2369 29.449 11.2369 29.4609 11.2369 29.4739C11.2369 29.462 11.2369 29.449 11.2316 29.4371C11.222 29.3601 11.2113 29.2843 11.2017 29.2084C11.207 29.2399 11.2113 29.2702 11.2166 29.3005C11.222 29.3309 11.2284 29.3872 11.2369 29.4295C11.2412 29.4316 11.239 29.4338 11.2369 29.436Z" fill="url(#paint11_linear)"/>
<path d="M11.2468 26.9883C11.2382 27.0566 11.2297 27.1238 11.2222 27.192C11.2222 27.218 11.2137 27.244 11.2104 27.269C11.2222 27.1747 11.2339 27.0815 11.2468 26.9883Z" fill="url(#paint12_linear)"/>
<path d="M11.5201 26.0056C11.5105 26.0305 11.5019 26.0555 11.4934 26.0804C11.4667 26.1378 11.4411 26.1952 11.4165 26.2537L11.5201 26.0056Z" fill="url(#paint13_linear)"/>
<path d="M12.5269 25.4877C12.4874 25.4566 12.446 25.428 12.403 25.4021C12.4265 25.4346 12.4511 25.466 12.4756 25.4985C12.4521 25.4692 12.4287 25.4411 12.403 25.414C12.419 25.4519 12.434 25.4888 12.45 25.5223C12.4575 25.5418 12.466 25.5624 12.4746 25.5819C12.4671 25.5646 12.4596 25.5473 12.4511 25.5299C12.466 25.6448 12.482 25.7585 12.4959 25.8734C12.4885 25.8127 12.4788 25.7531 12.4671 25.6935C12.4499 25.6049 12.4278 25.5174 12.4009 25.4313C12.3924 25.4151 12.3838 25.3988 12.3742 25.3826L12.3304 25.3793C12.2888 25.3772 12.2471 25.3772 12.2055 25.3793C12.1447 25.3921 12.0848 25.4088 12.0261 25.4292C11.9761 25.4549 11.9277 25.4835 11.8809 25.5148C11.8225 25.5686 11.7672 25.6257 11.7153 25.6859C11.6822 25.7239 11.6491 25.764 11.6182 25.804L11.7912 25.5765C11.7752 25.5864 11.7599 25.5972 11.7452 25.609L11.7965 25.5689L11.93 25.4606L11.8691 25.4833L11.9385 25.4541L12.0111 25.3967L11.9503 25.4487L12.104 25.3837C12.0827 25.3837 12.0603 25.3837 12.0389 25.3891L12.1136 25.3793L12.1542 25.362L12.1222 25.3782L12.2589 25.3598C12.2247 25.3522 12.1905 25.3468 12.1521 25.3414L12.2695 25.3576H12.3069L12.2226 25.3176L12.3144 25.3566H12.3304C12.3048 25.332 12.2781 25.3082 12.2503 25.2851L12.34 25.3555C12.3153 25.3135 12.2882 25.2729 12.2589 25.2341L12.3496 25.3544H12.3614C12.3518 25.3273 12.3411 25.3002 12.3304 25.2731L12.3646 25.3544C12.3646 25.3641 12.3721 25.3728 12.3753 25.3815L12.5045 25.3988C12.4618 25.3934 12.4201 25.3902 12.3785 25.388L12.5386 25.4562C12.4947 25.438 12.4497 25.422 12.4041 25.4086L12.5269 25.4877Z" fill="url(#paint14_linear)"/>
<path d="M12.1658 27.7631L12.0312 28.0881C12.0483 28.0459 12.0654 28.0036 12.0814 27.9603C12.1103 27.8931 12.1391 27.8281 12.1658 27.7631Z" fill="url(#paint15_linear)"/>
<path d="M12.4801 26.4434C12.4651 26.5625 12.4491 26.6828 12.4331 26.802C12.4406 26.7413 12.4481 26.6806 12.4534 26.62C12.463 26.5604 12.4726 26.5019 12.4801 26.4434Z" fill="url(#paint16_linear)"/>
<path d="M27.1585 34.8642C27.1562 35.2209 27.0167 35.5627 26.7698 35.8166C26.5187 36.0659 26.1824 36.2072 25.8311 36.211C25.7188 36.2103 25.6065 36.2161 25.4948 36.2283C25.3143 36.2587 25.1338 36.2922 24.9523 36.3193C24.6227 36.3839 24.2872 36.4118 23.9517 36.4028C23.7358 36.3896 23.5214 36.3573 23.311 36.3063C23.1179 36.2492 22.9306 36.1738 22.7515 36.081C22.6507 36.0309 22.5552 35.9706 22.4664 35.9011C22.3031 35.7823 22.1466 35.6543 21.9976 35.5175C21.6829 35.2124 21.3883 34.8866 21.1155 34.5424C20.871 34.2434 20.635 33.9367 20.4118 33.6214C20.095 33.9096 19.7628 34.1798 19.4166 34.4308C18.9255 34.7889 18.3978 35.0922 17.8426 35.3355C17.1974 35.6314 16.522 35.8541 15.8286 35.9997C14.9359 36.1709 14.0421 36.2272 13.1505 36.0149C12.3218 35.8177 11.5765 35.3355 10.9721 34.7374C10.7743 34.5382 10.5895 34.3261 10.4189 34.1025C11.1104 33.5448 11.7587 32.934 12.3581 32.2757C12.3784 32.305 12.3987 32.3353 12.4212 32.3646C12.6207 32.6142 12.8419 32.8452 13.0821 33.0548C13.224 33.1561 13.3732 33.2463 13.5285 33.3246C13.6819 33.3787 13.8389 33.4214 13.9984 33.4524C14.302 33.4775 14.6073 33.4739 14.9103 33.4416C15.4924 33.3469 16.0622 33.1867 16.6092 32.9638C17.1592 32.7133 17.6811 32.4039 18.1661 32.0406C18.6278 31.6643 19.0478 31.2381 19.4187 30.7697L19.454 30.7209C19.5703 30.5215 19.7345 30.3553 19.9313 30.2377C20.2354 30.0585 20.5971 30.0087 20.9372 30.0992C21.2774 30.1898 21.5684 30.4133 21.7466 30.7209C22.0673 31.3268 22.434 31.9064 22.8433 32.4545C23.011 32.6712 23.185 32.876 23.3655 33.0775C23.5406 33.281 23.7267 33.4746 23.9229 33.6572C23.9462 33.6734 23.9705 33.6883 23.9955 33.7016L24.0329 33.7125C24.1519 33.7162 24.2711 33.7119 24.3895 33.6995C24.8658 33.6214 25.3431 33.5153 25.8258 33.5185C26.1767 33.5252 26.5121 33.6665 26.7644 33.914C27.0137 34.1659 27.1552 34.5072 27.1585 34.8642Z" fill="url(#paint17_linear)"/>
<defs>
<linearGradient id="paint0_linear" x1="16.735" y1="6.63568" x2="29.8383" y2="6.65815" gradientUnits="userSpaceOnUse">
<stop stop-color="#2BA7D8"/>
<stop offset="1" stop-color="#2B519A"/>
</linearGradient>
<linearGradient id="paint1_linear" x1="29.859" y1="12.2235" x2="29.8724" y2="12.2235" gradientUnits="userSpaceOnUse">
<stop stop-color="#2BA7D8"/>
<stop offset="1" stop-color="#2B519A"/>
</linearGradient>
<linearGradient id="paint2_linear" x1="0.323276" y1="22.3382" x2="30.0012" y2="22.3724" gradientUnits="userSpaceOnUse">
<stop stop-color="#2BA7D8"/>
<stop offset="1" stop-color="#2B519A"/>
</linearGradient>
<linearGradient id="paint3_linear" x1="16.5929" y1="0.332831" x2="16.6489" y2="0.332916" gradientUnits="userSpaceOnUse">
<stop stop-color="#2BA7D8"/>
<stop offset="1" stop-color="#2B519A"/>
</linearGradient>
<linearGradient id="paint4_linear" x1="16.8434" y1="0.115771" x2="16.9902" y2="0.116225" gradientUnits="userSpaceOnUse">
<stop stop-color="#2BA7D8"/>
<stop offset="1" stop-color="#2B519A"/>
</linearGradient>
<linearGradient id="paint5_linear" x1="3.22226" y1="11.6646" x2="14.9291" y2="11.7619" gradientUnits="userSpaceOnUse">
<stop stop-color="#2BA7D8"/>
<stop offset="1" stop-color="#2B519A"/>
</linearGradient>
<linearGradient id="paint6_linear" x1="3.27505" y1="17.5181" x2="22.8735" y2="17.791" gradientUnits="userSpaceOnUse">
<stop stop-color="#2BA7D8"/>
<stop offset="1" stop-color="#2B519A"/>
</linearGradient>
<linearGradient id="paint7_linear" x1="4.6194" y1="30.2441" x2="15.1322" y2="30.2567" gradientUnits="userSpaceOnUse">
<stop stop-color="#2BA7D8"/>
<stop offset="1" stop-color="#2B519A"/>
</linearGradient>
<linearGradient id="paint8_linear" x1="5.96927" y1="33.6882" x2="6.28618" y2="33.6894" gradientUnits="userSpaceOnUse">
<stop stop-color="#2BA7D8"/>
<stop offset="1" stop-color="#2B519A"/>
</linearGradient>
<linearGradient id="paint9_linear" x1="8.3652" y1="32.2532" x2="8.63141" y2="32.2537" gradientUnits="userSpaceOnUse">
<stop stop-color="#2BA7D8"/>
<stop offset="1" stop-color="#2B519A"/>
</linearGradient>
<linearGradient id="paint10_linear" x1="10.9593" y1="29.6978" x2="11.1642" y2="29.6981" gradientUnits="userSpaceOnUse">
<stop stop-color="#2BA7D8"/>
<stop offset="1" stop-color="#2B519A"/>
</linearGradient>
<linearGradient id="paint11_linear" x1="11.2021" y1="29.353" x2="11.2394" y2="29.353" gradientUnits="userSpaceOnUse">
<stop stop-color="#2BA7D8"/>
<stop offset="1" stop-color="#2B519A"/>
</linearGradient>
<linearGradient id="paint12_linear" x1="11.2108" y1="27.1412" x2="11.2468" y2="27.1412" gradientUnits="userSpaceOnUse">
<stop stop-color="#2BA7D8"/>
<stop offset="1" stop-color="#2B519A"/>
</linearGradient>
<linearGradient id="paint13_linear" x1="11.4176" y1="26.1408" x2="11.5201" y2="26.1408" gradientUnits="userSpaceOnUse">
<stop stop-color="#2BA7D8"/>
<stop offset="1" stop-color="#2B519A"/>
</linearGradient>
<linearGradient id="paint14_linear" x1="11.6281" y1="25.5823" x2="12.5387" y2="25.5844" gradientUnits="userSpaceOnUse">
<stop stop-color="#2BA7D8"/>
<stop offset="1" stop-color="#2B519A"/>
</linearGradient>
<linearGradient id="paint15_linear" x1="12.0327" y1="27.9401" x2="12.1658" y2="27.9402" gradientUnits="userSpaceOnUse">
<stop stop-color="#2BA7D8"/>
<stop offset="1" stop-color="#2B519A"/>
</linearGradient>
<linearGradient id="paint16_linear" x1="12.4336" y1="26.6387" x2="12.4801" y2="26.6387" gradientUnits="userSpaceOnUse">
<stop stop-color="#2BA7D8"/>
<stop offset="1" stop-color="#2B519A"/>
</linearGradient>
<linearGradient id="paint17_linear" x1="10.5993" y1="33.5132" x2="27.1589" y2="33.5821" gradientUnits="userSpaceOnUse">
<stop stop-color="#2BA7D8"/>
<stop offset="1" stop-color="#2B519A"/>
</linearGradient>
</defs>
</svg>
