<svg width="41" height="41" viewBox="0 0 41 41" fill="none" xmlns="http://www.w3.org/2000/svg">
<path d="M33.0624 0H7.93761C5.83238 0.00229653 3.81411 0.827068 2.32589 2.29324C0.837681 3.75941 0.00116504 5.74715 0 7.82005V33.1843C0.00203973 35.2565 0.838977 37.2433 2.32713 38.7086C3.81528 40.1739 5.83305 40.998 7.93761 41H33.0624C35.1669 40.9977 37.1845 40.1735 38.6726 38.7083C40.1606 37.2431 40.9977 35.2564 41 33.1843V7.82005C40.9985 5.74724 40.1619 3.75966 38.6738 2.29356C37.1856 0.827447 35.1675 0.00258299 33.0624 0ZM17.9686 2.9607H26.4796V12.6545H17.9686V2.9607ZM12.6636 38.0393H7.93761C6.63026 38.0382 5.37678 37.5263 4.45234 36.616C3.5279 35.7058 3.00804 34.4716 3.00687 33.1843V29.5549H12.6636V38.0393ZM25.3295 38.0393H15.6705V29.5549H25.3295V38.0393ZM37.9931 33.1843C37.992 34.4716 37.4721 35.7058 36.5477 36.616C35.6232 37.5263 34.3697 38.0382 33.0624 38.0393H28.3364V29.5549H37.9931V33.1843ZM37.9931 26.5942H3.00687V7.82005C3.00804 6.53277 3.5279 5.29855 4.45234 4.3883C5.37678 3.47806 6.63026 2.96618 7.93761 2.96503H14.9573V14.1348C14.9572 14.3293 14.996 14.5218 15.0715 14.7015C15.147 14.8812 15.2577 15.0444 15.3973 15.1819C15.537 15.3194 15.7028 15.4284 15.8852 15.5028C16.0677 15.5771 16.2633 15.6153 16.4608 15.6152H37.9931V26.5942ZM37.9931 12.6545H29.4821V2.9607H33.0624C34.3697 2.96184 35.6232 3.47372 36.5477 4.38397C37.4721 5.29421 37.992 6.52844 37.9931 7.81572V12.6545Z" fill="url(#paint0_linear)"/>
<defs>
<linearGradient id="paint0_linear" x1="0.44181" y1="22.3304" x2="41.0016" y2="22.3943" gradientUnits="userSpaceOnUse">
<stop stop-color="#2BA7D8"/>
<stop offset="1" stop-color="#2B519A"/>
</linearGradient>
</defs>
</svg>
